<svg xmlns="http://www.w3.org/2000/svg" viewBox="0 0 64 64" width="32" height="32">
  <defs>
    <linearGradient id="grad1" x1="0%" y1="0%" x2="100%" y2="100%">
      <stop offset="0%" style="stop-color:#0033cc;stop-opacity:1" />
      <stop offset="100%" style="stop-color:#00ff88;stop-opacity:1" />
    </linearGradient>
    <linearGradient id="grad2" x1="0%" y1="0%" x2="0%" y2="100%">
      <stop offset="0%" style="stop-color:#ffffff;stop-opacity:0.8" />
      <stop offset="100%" style="stop-color:#ffffff;stop-opacity:0" />
    </linearGradient>
    <filter id="drop-shadow" x="-20%" y="-20%" width="140%" height="140%">
      <feDropShadow dx="2" dy="4" stdDeviation="2" flood-opacity="0.3" />
    </filter>
  </defs>
  
  <!-- Back 3D Edge -->
  <path d="M22 48 C22 55, 12 59, 8 55 C4 51, 8 41, 15 41 L22 41 L30 10 C35 8, 48 10, 52 20 L55 20 C50 6, 30 2, 26 12 L17 48" fill="#002288" />
  
  <!-- Main Note Body -->
  <path d="M24 46 C24 53, 14 57, 10 53 C6 49, 10 39, 17 39 C20 39, 22 41, 24 43 L32 8 C37 6, 50 8, 54 18 C58 28, 46 26, 42 22 C38 18, 38 14, 38 14 L28 42" fill="url(#grad1)" filter="url(#drop-shadow)" />

  <!-- Highlights -->
  <path d="M14 50 C12 48, 12 45, 15 42" stroke="white" stroke-width="2" stroke-linecap="round" fill="none" opacity="0.8" />
  <path d="M20 42 C22 43, 22 44, 22 44" stroke="white" stroke-width="2" stroke-linecap="round" fill="none" opacity="0.8" />
  <path d="M46 16 C48 18, 50 20, 51 23" stroke="white" stroke-width="2" stroke-linecap="round" fill="none" opacity="0.8" />
</svg>
